<?xml version="1.0" encoding="UTF-8" standalone="no"?>
<svg
   xmlns:dc="http://purl.org/dc/elements/1.1/"
   xmlns:cc="http://creativecommons.org/ns#"
   xmlns:rdf="http://www.w3.org/1999/02/22-rdf-syntax-ns#"
   xmlns:svg="http://www.w3.org/2000/svg"
   xmlns="http://www.w3.org/2000/svg"
   xmlns:sodipodi="http://sodipodi.sourceforge.net/DTD/sodipodi-0.dtd"
   xmlns:inkscape="http://www.inkscape.org/namespaces/inkscape"
   sodipodi:docname="favicon.svg"
   inkscape:version="1.0 (4035a4fb49, 2020-05-01)"
   id="svg750"
   version="1.1"
   viewBox="0 0 70.023117 57.648895"
   height="57.648895mm"
   width="70.023117mm">
  <defs
     id="defs744" />
  <sodipodi:namedview
     inkscape:window-maximized="0"
     inkscape:window-y="0"
     inkscape:window-x="130"
     inkscape:window-height="860"
     inkscape:window-width="1274"
     fit-margin-bottom="0"
     fit-margin-right="0"
     fit-margin-left="0"
     fit-margin-top="0"
     inkscape:pagecheckerboard="true"
     showgrid="false"
     inkscape:document-rotation="0"
     inkscape:current-layer="layer1"
     inkscape:document-units="mm"
     inkscape:cy="154.6571"
     inkscape:cx="-357.67284"
     inkscape:zoom="0.35"
     inkscape:pageshadow="2"
     inkscape:pageopacity="0.0"
     borderopacity="1.0"
     bordercolor="#666666"
     pagecolor="#ffffff"
     id="base" />
  <metadata
     id="metadata747">
    <rdf:RDF>
      <cc:Work
         rdf:about="">
        <dc:format>image/svg+xml</dc:format>
        <dc:type
           rdf:resource="http://purl.org/dc/dcmitype/StillImage" />
        <dc:title></dc:title>
      </cc:Work>
    </rdf:RDF>
  </metadata>
  <g
     transform="translate(-71.577724,-107.24698)"
     id="layer1"
     inkscape:groupmode="layer"
     inkscape:label="Layer 1">
    <g
       style="fill:#000000"
       transform="matrix(0.35277777,0,0,-0.35277777,138.43405,118.47067)"
       id="g300">
      <path
         id="path302"
         style="fill:#000000;fill-opacity:1;fill-rule:nonzero;stroke:none"
         d="M 0,0 C 0.118,0.896 0.221,1.685 0.324,2.474 0.244,2.499 0.165,2.525 0.085,2.55 -0.351,1.734 -0.785,0.918 -1.274,0 Z m -189.514,-106.314 c 0.562,2.818 2.721,4.022 5.378,4.731 1.5,0.4 3.014,0.763 4.49,1.232 3.791,1.205 6.597,3.584 8.959,6.572 3.623,4.584 7.446,9.029 11.029,13.638 2.989,3.845 6.826,6.639 11.371,8.54 6.347,2.655 11.355,6.618 14.843,12.323 2.768,4.529 6.515,8.297 10.837,11.555 4.285,3.233 7.017,7.4 8.619,12.309 0.595,1.824 1.338,3.621 2.19,5.352 1.871,3.803 5.313,5.842 9.453,6.796 3.693,0.852 7.147,2.021 10.012,4.467 2.127,1.815 4.299,3.583 6.452,5.37 4.986,4.139 9.943,8.311 14.984,12.389 1.224,0.991 2.786,1.602 4.098,2.509 1.302,0.901 2.592,1.86 3.689,2.968 1.056,1.068 1.837,2.374 2.778,3.547 0.606,0.755 0.57,1.44 -0.076,2.126 -0.435,0.46 -0.856,0.935 -1.327,1.36 -2.435,2.196 -4.358,4.677 -4.953,7.981 -2.725,-0.272 -5.352,-0.503 -7.971,-0.803 -4.572,-0.523 -9.203,-0.722 -13.643,-2.026 -2.286,-0.672 -4.568,-1.352 -6.511,-2.756 -2.418,-1.747 -3.493,-4.319 -4.735,-6.785 -0.498,-0.987 -0.879,-2.028 -1.393,-3.007 -0.213,-0.407 -0.574,-0.905 -0.979,-1.026 -0.663,-0.196 -1.589,-0.369 -2.077,-0.073 -0.374,0.227 -0.45,1.239 -0.296,1.817 0.297,1.119 0.862,2.174 1.29,3.265 0.185,0.469 0.304,0.962 0.452,1.444 -0.068,0.09 -0.137,0.179 -0.204,0.269 -0.706,-0.253 -1.494,-0.393 -2.102,-0.782 -1.74,-1.113 -3.397,-2.342 -5.105,-3.5 -0.822,-0.558 -1.661,-1.102 -2.54,-1.574 -0.607,-0.327 -1.412,-0.38 -1.712,0.284 -0.206,0.455 -0.14,1.304 0.192,1.64 1.376,1.4 2.9,2.673 4.37,3.992 -0.077,0.092 -0.152,0.184 -0.228,0.276 -1.248,-0.587 -2.492,-1.183 -3.746,-1.759 -0.683,-0.314 -1.358,-0.692 -2.085,-0.853 -0.454,-0.101 -1.242,-10e-4 -1.435,0.28 -0.249,0.36 -0.265,1.152 0.002,1.476 0.54,0.65 1.285,1.193 2.042,1.631 1.577,0.911 3.23,1.704 4.82,2.597 0.336,0.188 0.536,0.592 0.799,0.897 -0.369,0.166 -0.72,0.414 -1.109,0.486 -1.565,0.293 -3.142,0.53 -4.716,0.791 -0.393,0.065 -0.796,0.103 -1.174,0.218 -0.741,0.224 -1.675,0.317 -1.499,1.399 0.12,0.736 1.013,1.133 2.12,0.947 1.677,-0.283 3.346,-0.616 5.029,-0.877 0.707,-0.109 1.437,-0.087 2.157,-0.124 l 0.191,0.265 c -0.256,0.25 -0.464,0.604 -0.777,0.733 -1.327,0.549 -2.686,1.026 -4.03,1.537 -0.505,0.192 -1.065,0.327 -1.479,0.634 -0.354,0.263 -0.82,0.829 -0.722,1.091 0.141,0.378 0.734,0.825 1.157,0.847 0.847,0.042 1.805,0.004 2.549,-0.331 2.835,-1.278 5.71,-1.653 8.764,-0.861 0.574,0.15 1.243,0.104 1.844,0.013 2.233,-0.341 4.233,0.256 6.175,1.209 3.894,1.911 7.741,3.918 11.715,5.67 4.771,2.106 9.935,3.004 15.105,3.746 0.976,0.139 2.214,-0.029 3.039,-0.505 4.489,-2.581 8.935,-5.234 13.295,-8.004 2.678,-1.7 4.475,-4.177 5.811,-6.929 0.293,-0.603 0.646,-0.954 1.373,-1.123 2.135,-0.499 2.337,-0.671 4.853,-3.024 0.583,1.221 1.109,2.443 1.736,3.617 2.075,3.888 5.305,6.657 9.509,8.382 4.239,1.739 8.301,1.31 12.077,-1.209 3.556,-2.372 6.451,-5.326 8.375,-9.025 0.543,-1.044 0.834,-2.264 0.949,-3.43 C -7.048,9.324 -7.573,9.049 -8.745,8.721 -9.306,8.564 -9.96,8.018 -10.154,7.506 -10.957,5.404 -12.04,3.518 -13.866,2.042 c -0.249,-0.2 -0.379,-0.579 -0.466,-0.899 -0.225,-0.828 -0.404,-1.667 -0.584,-2.505 -0.492,-2.304 -0.921,-2.92 -3.424,-2.037 -0.452,-0.767 -0.973,-1.489 -2.033,-1.062 -1.336,-1.091 -2.613,-2.135 -3.66,-2.99 0.262,-1.618 0.479,-3.054 0.735,-4.484 0.057,-0.315 0.162,-0.697 0.393,-0.898 2.965,-2.568 4.512,-5.901 5.781,-9.392 0.09,-0.248 0.205,-0.488 0.342,-0.812 2.831,2.867 5.319,5.867 7.119,9.34 0.462,0.892 0.947,1.773 1.451,2.644 1.045,1.805 2.025,3.589 1.748,5.789 -0.105,0.837 0.167,1.797 0.534,2.591 1.059,2.284 2.192,4.542 3.417,6.75 0.779,1.402 1.742,1.673 3.233,1.197 0.168,0.663 0.268,1.35 0.521,1.982 0.239,0.596 0.555,1.205 1,1.67 C 2.482,9.178 3.17,9.33 3.46,9.184 3.752,9.037 3.972,8.443 3.926,8.079 3.78,6.928 3.491,5.793 3.269,4.65 3.21,4.353 3.189,4.049 3.292,3.708 c 0.45,0.88 0.87,1.777 1.364,2.636 0.29,0.506 0.642,1.007 1.077,1.401 0.235,0.213 0.826,0.371 1.035,0.24 0.285,-0.178 0.541,-0.683 0.488,-1 C 7.138,6.288 6.819,5.621 6.546,4.837 6.924,4.916 7.293,5.084 7.633,5.042 8.065,4.988 8.608,4.866 8.852,4.582 9.048,4.353 8.992,3.783 8.829,3.464 8.468,2.76 7.957,2.124 7.528,1.449 7.104,0.784 6.403,0.208 6.849,-0.735 6.948,-0.947 6.733,-1.328 6.591,-1.597 5.045,-4.513 3.374,-7.343 0.813,-9.622 c -0.559,-0.497 -1.036,-1.158 -1.33,-1.829 -2.671,-6.091 -5.257,-12.217 -7.957,-18.298 -0.779,-1.756 -1.755,-3.452 -2.809,-5.079 -0.868,-1.337 -2.209,-2.227 -3.826,-2.746 -1.411,-0.452 -2.704,-0.3 -3.766,0.63 -1.192,1.045 -2.298,2.187 -3.362,3.351 -2.157,2.36 -4.372,4.684 -6.356,7.171 -2.305,2.888 -4.387,5.934 -6.633,9.002 -0.426,-0.326 -1.094,-0.82 -1.743,-1.336 -3.233,-2.573 -6.905,-4.341 -10.898,-5.662 -2.968,-0.982 -5.797,-2.337 -8.675,-3.552 -4.236,-1.787 -8.508,-3.509 -12.672,-5.436 -2.123,-0.983 -4.043,-2.353 -6.186,-3.626 2.134,-1.808 3.988,-3.431 5.901,-4.989 5.653,-4.6 10.31,-10.011 14.537,-15.774 1.94,-2.644 3.961,-5.24 5.785,-7.954 1.387,-2.061 1.942,-4.402 1.794,-6.87 -0.181,-3.029 -1.662,-5.322 -4.541,-6.64 -1.98,-0.908 -4.075,-1.623 -6.173,-2.268 -4.236,-1.302 -8.452,-2.735 -12.785,-3.667 -4.163,-0.894 -8.468,-1.198 -12.703,-1.806 -4.353,-0.623 -8.65,-1.446 -12.63,-3.339 -0.598,-0.286 -0.921,-0.63 -1.021,-1.294 -0.397,-2.603 -0.931,-5.188 -1.291,-7.795 -0.282,-2.041 0.485,-3.835 1.859,-5.412 0.461,-0.529 0.929,-1.059 1.323,-1.631 1.069,-1.551 0.888,-2.936 -0.507,-4.252 -1.447,-1.367 -3.553,-1.714 -5.428,-0.879 -1.989,0.885 -3.357,2.394 -4.419,4.134 -1.177,1.925 -2.302,3.885 -3.312,5.892 -1.894,3.764 -4.143,7.296 -7.091,10.418 -0.405,0.43 -0.735,0.933 -1.038,1.436 -0.656,1.089 -0.605,2.172 0.217,3.167 1.963,2.376 4.674,3.741 7.563,4.828 0.273,0.103 0.777,-0.089 1.054,-0.289 0.571,-0.412 1.053,-0.514 1.773,-0.242 5.726,2.157 11.515,4.173 17.197,6.428 2.524,1.001 4.962,2.294 7.229,3.747 2.713,1.737 5.569,3.056 8.728,3.827 0.171,0.042 0.337,0.099 0.876,0.261 -8.802,3.008 -16.116,7.823 -23.359,12.992 -3.469,-2.67 -6.893,-5.315 -10.329,-7.946 -3.777,-2.891 -7.542,-5.796 -11.356,-8.644 -1.978,-1.478 -4.224,-2.541 -6.64,-3.237 -1.636,-0.471 -2.965,-1.347 -4.291,-2.345 -1.832,-1.38 -3.731,-2.736 -5.781,-3.794 -2.195,-1.134 -4.029,-2.656 -5.983,-4.069 -6.569,-4.748 -13.147,-9.487 -19.781,-14.152 -5.314,-3.735 -9.795,-8.222 -13.907,-13.148 0.576,-0.412 1.112,-0.796 1.789,-1.283 -2.576,-1.747 -3.542,-4.36 -4.79,-6.811 -1.19,-2.338 -1.265,-4.664 -0.077,-7.02 0.186,-0.368 0.32,-0.763 0.439,-1.157 0.36,-1.181 0.207,-2.227 -0.944,-2.99 h -1.309 c -0.776,0.432 -1.624,0.777 -2.315,1.307 -4.593,3.529 -7.489,7.911 -7.741,13.654 -0.1,2.281 -0.418,4.553 -0.636,6.829 z" />
    </g>
  </g>
</svg>
