<?xml version="1.0" encoding="UTF-8" standalone="no"?>
<svg
   xmlns:dc="http://purl.org/dc/elements/1.1/"
   xmlns:cc="http://creativecommons.org/ns#"
   xmlns:rdf="http://www.w3.org/1999/02/22-rdf-syntax-ns#"
   xmlns:svg="http://www.w3.org/2000/svg"
   xmlns="http://www.w3.org/2000/svg"
   xmlns:sodipodi="http://sodipodi.sourceforge.net/DTD/sodipodi-0.dtd"
   xmlns:inkscape="http://www.inkscape.org/namespaces/inkscape"
   sodipodi:docname="lapt_logo.svg"
   inkscape:version="1.0 (4035a4fb49, 2020-05-01)"
   id="svg766"
   version="1.1"
   viewBox="0 0 270.22766 83.27594"
   height="83.27594mm"
   width="270.22766mm">
  <defs
     id="defs760">
    <clipPath
       clipPathUnits="userSpaceOnUse"
       id="clipPath788">
      <path
         d="M 0,520 H 1000 V 0 H 0 Z"
         id="path786" />
    </clipPath>
  </defs>
  <sodipodi:namedview
     inkscape:window-maximized="0"
     inkscape:window-y="0"
     inkscape:window-x="26"
     inkscape:window-height="860"
     inkscape:window-width="1274"
     inkscape:pagecheckerboard="true"
     fit-margin-bottom="0"
     fit-margin-right="0"
     fit-margin-left="0"
     fit-margin-top="0"
     showgrid="false"
     inkscape:document-rotation="0"
     inkscape:current-layer="layer1"
     inkscape:document-units="mm"
     inkscape:cy="131.65756"
     inkscape:cx="590.66645"
     inkscape:zoom="0.35"
     inkscape:pageshadow="2"
     inkscape:pageopacity="0.0"
     borderopacity="1.0"
     bordercolor="#666666"
     pagecolor="#ffffff"
     id="base" />
  <metadata
     id="metadata763">
    <rdf:RDF>
      <cc:Work
         rdf:about="">
        <dc:format>image/svg+xml</dc:format>
        <dc:type
           rdf:resource="http://purl.org/dc/dcmitype/StillImage" />
        <dc:title></dc:title>
      </cc:Work>
    </rdf:RDF>
  </metadata>
  <g
     transform="translate(50.447164,-113.33227)"
     id="layer1"
     inkscape:groupmode="layer"
     inkscape:label="Layer 1">
    <g
       id="g776"
       inkscape:label="Linespeed athletic performance training Final Files"
       transform="matrix(0.35277777,0,0,-0.35277777,-91.722163,246.69235)">
      <g
         id="g778"
         transform="translate(117,206.7461)">
        <path
           d="m 0,0 22.013,104.073 1.284,6.04 10.271,48.554 H 95.297 L 83.531,103.129 68.24,31.003 h 54.726 L 116.473,0 Z"
           style="fill:#939598;fill-opacity:1;fill-rule:nonzero;stroke:none"
           id="path780" />
      </g>
      <g
         id="g782">
        <g
           id="g784"
           clip-path="url(#clipPath788)">
          <g
             id="g790"
             transform="translate(476.8911,283.4033)">
            <path
               d="M 0,0 5.729,27.031 7.081,33.446 10.8,50.997 H -6.513 L -17.313,0 Z m -95.286,-76.657 22.013,104.073 1.285,6.04 10.269,48.554 H 48.308 c 8.914,0 15.759,-2.91 20.342,-8.648 4.564,-5.736 5.874,-13.134 3.894,-21.994 L 67.064,25.559 60.922,-3.313 C 59.045,-11.666 54.965,-18.459 48.789,-23.527 42.551,-28.633 35.211,-31.22 26.97,-31.22 l -50.827,0.198 -9.708,-45.635 z"
               style="fill:#939598;fill-opacity:1;fill-rule:nonzero;stroke:none"
               id="path792" />
          </g>
          <g
             id="g794"
             transform="translate(560.8252,206.7461)">
            <path
               d="M 0,0 27.047,127.654 H -9.288 l 6.492,31.013 h 134.432 l -6.491,-31.013 H 88.774 L 61.718,0 Z"
               style="fill:#939598;fill-opacity:1;fill-rule:nonzero;stroke:none"
               id="path796" />
          </g>
          <g
             id="g798"
             transform="translate(331.0649,283.4033)">
            <path
               d="M 0,0 5.617,26.504 7.082,33.448 10.8,50.997 H -6.515 L -17.324,0 Z m -16.255,-76.657 9.721,45.655 h -17.32 l -9.722,-45.655 h -61.719 l 27.638,130.751 c 1.865,8.349 5.947,15.144 12.137,20.223 6.221,5.105 13.565,7.693 21.829,7.693 h 81.999 c 8.915,0 15.758,-2.91 20.342,-8.648 4.569,-5.742 5.874,-13.143 3.882,-22.002 L 45.483,-76.657 Z"
               style="fill:#939598;fill-opacity:1;fill-rule:nonzero;stroke:none"
               id="path800" />
          </g>
          <g
             id="g802"
             transform="translate(198.3027,310.3481)">
            <path
               d="M 0,0 H -0.003 L 11.183,52.788 H -45.889 L -55.777,6.038 -57.06,0 h -10e-4 L -78.492,-101.324 H 33.319 l 5.54,26.448 h -54.733 z"
               style="fill:#939598;fill-opacity:1;fill-rule:nonzero;stroke:none"
               id="path804" />
          </g>
          <g
             id="g806"
             transform="translate(456.7656,281.126)">
            <path
               d="M 0,0 6.194,29.222 H 6.192 l 5.574,26.33 H 33.737 L 29.436,35.254 28.083,28.836 21.972,0 Z M 68.434,82.01 H -39.747 l -9.888,-46.75 -1.282,-6.038 h -0.002 L -72.35,-72.102 h 57.066 l 9.709,45.642 52.671,-0.204 c 7.703,0 14.555,2.413 20.373,7.175 5.773,4.738 9.59,11.09 11.35,18.928 l 6.142,28.87 h 0.001 l 5.484,25.834 c 1.823,8.154 0.663,14.906 -3.451,20.074 -4.129,5.171 -10.374,7.793 -18.561,7.793"
               style="fill:#939598;fill-opacity:1;fill-rule:nonzero;stroke:none"
               id="path808" />
          </g>
          <g
             id="g810"
             transform="translate(559.8799,363.1357)">
            <path
               d="m 0,0 -5.539,-26.458 h 36.344 l -5.581,-26.33 H 25.223 L 3.757,-154.111 h 57.06 L 82.1,-53.701 h 0.001 l 5.774,27.243 h 36.364 L 129.777,0 Z"
               style="fill:#939598;fill-opacity:1;fill-rule:nonzero;stroke:none"
               id="path812" />
          </g>
          <g
             id="g814"
             transform="translate(310.9292,281.126)">
            <path
               d="m 0,0 6,28.309 h 0.001 l 5.774,27.243 h 21.972 l -4.3,-20.297 -1.467,-6.946 h 0.001 L 21.981,0 Z m 85.18,29.222 5.265,24.916 c 1.834,8.153 0.678,14.906 -3.44,20.079 -4.129,5.171 -10.374,7.793 -18.561,7.793 h -82 c -7.721,0 -14.579,-2.415 -20.383,-7.176 -5.788,-4.749 -9.603,-11.103 -11.353,-18.933 l -5.831,-27.592 h 10e-4 L -72.35,-72.102 h 57.065 l 9.722,45.655 h 21.98 L 6.694,-72.102 h 57.078 l 21.41,101.324 z"
               style="fill:#939598;fill-opacity:1;fill-rule:nonzero;stroke:none"
               id="path816" />
          </g>
          <g
             id="g818"
             transform="translate(193.1963,306.2104)">
            <path
               d="M 0,0 H -48.601 L -68.282,-93.048 H 35.065 l 3.807,18.173 h -54.747 z"
               style="fill:#000000;fill-opacity:1;fill-rule:nonzero;stroke:none"
               id="path820" />
          </g>
          <g
             id="g822"
             transform="translate(313.5796,313.5723)">
            <path
               d="M 0,0 0.415,1.954 5.773,27.243 H 36.202 L 30.844,1.954 30.432,0 h 48.55 l 0.412,1.954 4.365,20.645 c 1.552,6.899 0.672,12.432 -2.637,16.59 -3.32,4.158 -8.43,6.237 -15.329,6.237 h -81.999 c -6.765,0 -12.691,-2.079 -17.759,-6.237 -5.068,-4.158 -8.389,-9.691 -9.93,-16.59 L -48.259,1.954 -48.671,0 Z"
               style="fill:#000000;fill-opacity:1;fill-rule:nonzero;stroke:none"
               id="path824" />
          </g>
          <g
             id="g826"
             transform="translate(194.7515,313.5723)">
            <path
               d="M 0,0 0.412,1.954 9.628,45.426 H -38.984 L -48.179,1.954 -48.594,0 Z"
               style="fill:#000000;fill-opacity:1;fill-rule:nonzero;stroke:none"
               id="path828" />
          </g>
          <g
             id="g830"
             transform="translate(459.4087,313.5723)">
            <path
               d="M 0,0 0.412,1.954 5.77,27.243 H 36.199 L 30.841,1.954 30.429,0 h 48.537 l 0.415,1.954 4.385,20.645 c 1.541,6.899 0.662,12.432 -2.647,16.59 -3.321,4.158 -8.419,6.237 -15.328,6.237 H -39.036 L -48.231,1.954 -48.646,0 Z"
               style="fill:#000000;fill-opacity:1;fill-rule:nonzero;stroke:none"
               id="path832" />
          </g>
          <g
             id="g834"
             transform="translate(563.2402,358.9985)">
            <path
               d="M 0,0 -3.806,-18.183 H 32.55 l -5.358,-25.289 -0.415,-1.954 H 75.39 l 0.415,1.954 5.357,25.289 h 36.356 L 121.324,0 Z"
               style="fill:#000000;fill-opacity:1;fill-rule:nonzero;stroke:none"
               id="path836" />
          </g>
          <g
             id="g838"
             transform="translate(342.4565,306.2104)">
            <path
               d="m 0,0 -6.193,-29.222 h -30.44 L -30.439,0 h -48.664 l -19.67,-93.048 h 48.611 l 9.723,45.653 H -10 l -9.722,-45.653 H 28.89 L 48.551,0 Z"
               style="fill:#000000;fill-opacity:1;fill-rule:nonzero;stroke:none"
               id="path840" />
          </g>
          <g
             id="g842"
             transform="translate(588.4551,306.2104)">
            <path
               d="M 0,0 -19.712,-93.048 H 28.89 L 48.611,0 Z"
               style="fill:#000000;fill-opacity:1;fill-rule:nonzero;stroke:none"
               id="path844" />
          </g>
          <g
             id="g846"
             transform="translate(488.2827,306.2104)">
            <path
               d="m 0,0 -6.193,-29.222 h -30.43 L -30.429,0 h -48.653 l -19.681,-93.048 h 48.612 l 9.712,45.653 56.018,-0.217 c 6.764,0 12.67,2.079 17.749,6.237 5.067,4.158 8.378,9.691 9.928,16.59 L 48.528,0 Z"
               style="fill:#000000;fill-opacity:1;fill-rule:nonzero;stroke:none"
               id="path848" />
          </g>
          <g
             id="g850"
             transform="translate(639.0449,315.5264)">
            <path
               d="M 0,0 -1.562,-7.354 H -494.034 L -492.473,0 Z"
               style="fill:#ed1c24;fill-opacity:1;fill-rule:nonzero;stroke:none"
               id="path852" />
          </g>
          <g
             id="g854"
             transform="translate(870.0332,332.0708)">
            <path
               d="M 0,0 C 0.17,1.295 0.319,2.434 0.469,3.573 0.354,3.61 0.237,3.647 0.122,3.684 -0.506,2.505 -1.134,1.327 -1.842,0 Z m -273.76,-153.575 c 0.813,4.072 3.931,5.812 7.769,6.835 2.167,0.577 4.353,1.102 6.485,1.78 5.477,1.74 9.531,5.176 12.944,9.494 5.232,6.621 10.754,13.041 15.931,19.7 4.318,5.554 9.86,9.589 16.425,12.336 9.168,3.835 16.402,9.56 21.44,17.801 3.999,6.543 9.413,11.986 15.655,16.692 6.191,4.669 10.136,10.689 12.451,17.78 0.86,2.636 1.933,5.23 3.164,7.732 2.702,5.492 7.674,8.438 13.655,9.817 5.334,1.23 10.323,2.919 14.463,6.452 3.072,2.622 6.209,5.177 9.319,7.758 7.204,5.979 14.363,12.005 21.646,17.896 1.768,1.431 4.024,2.314 5.919,3.625 1.881,1.301 3.745,2.686 5.329,4.287 1.525,1.542 2.653,3.429 4.014,5.123 0.876,1.091 0.823,2.081 -0.111,3.071 -0.628,0.665 -1.236,1.351 -1.917,1.965 -3.516,3.172 -6.295,6.756 -7.154,11.528 -3.937,-0.392 -7.731,-0.726 -11.515,-1.159 -6.605,-0.755 -13.294,-1.043 -19.708,-2.928 -3.301,-0.969 -6.598,-1.952 -9.406,-3.98 -3.493,-2.523 -5.044,-6.238 -6.839,-9.801 -0.719,-1.427 -1.269,-2.93 -2.012,-4.344 -0.309,-0.587 -0.829,-1.307 -1.415,-1.481 -0.957,-0.284 -2.294,-0.534 -3,-0.107 -0.541,0.328 -0.649,1.79 -0.427,2.625 0.428,1.617 1.246,3.141 1.864,4.716 0.266,0.678 0.438,1.39 0.653,2.087 -0.098,0.129 -0.197,0.258 -0.296,0.388 -1.019,-0.366 -2.158,-0.567 -3.036,-1.129 -2.512,-1.609 -4.907,-3.382 -7.375,-5.056 -1.187,-0.806 -2.399,-1.592 -3.668,-2.274 -0.878,-0.471 -2.04,-0.549 -2.473,0.41 -0.298,0.658 -0.201,1.884 0.276,2.37 1.989,2.022 4.189,3.86 6.313,5.765 -0.11,0.134 -0.219,0.267 -0.329,0.4 -1.802,-0.849 -3.599,-1.71 -5.41,-2.542 -0.987,-0.453 -1.964,-0.999 -3.012,-1.232 -0.657,-0.145 -1.794,-10e-4 -2.075,0.405 -0.357,0.52 -0.381,1.665 0.005,2.131 0.779,0.941 1.855,1.725 2.949,2.357 2.278,1.317 4.665,2.462 6.963,3.751 0.485,0.272 0.774,0.855 1.153,1.295 -0.533,0.241 -1.039,0.598 -1.6,0.703 -2.262,0.423 -4.541,0.766 -6.812,1.142 -0.569,0.095 -1.153,0.149 -1.698,0.315 -1.069,0.325 -2.42,0.458 -2.165,2.022 0.174,1.064 1.464,1.637 3.062,1.368 2.425,-0.409 4.835,-0.891 7.264,-1.267 1.022,-0.158 2.078,-0.125 3.118,-0.179 0.091,0.127 0.182,0.255 0.274,0.383 -0.369,0.362 -0.67,0.873 -1.121,1.059 -1.916,0.792 -3.88,1.482 -5.822,2.22 -0.729,0.277 -1.539,0.472 -2.136,0.915 -0.511,0.38 -1.184,1.198 -1.043,1.576 0.204,0.546 1.061,1.192 1.671,1.223 1.224,0.062 2.606,0.006 3.682,-0.478 4.095,-1.846 8.249,-2.387 12.66,-1.242 0.83,0.215 1.795,0.15 2.664,0.018 3.225,-0.493 6.114,0.37 8.92,1.747 5.625,2.759 11.182,5.658 16.922,8.19 6.892,3.042 14.352,4.339 21.821,5.41 1.409,0.202 3.197,-0.041 4.39,-0.728 6.484,-3.729 12.907,-7.562 19.205,-11.562 3.868,-2.456 6.463,-6.035 8.393,-10.01 0.424,-0.871 0.935,-1.377 1.983,-1.623 3.085,-0.721 3.375,-0.968 7.011,-4.368 0.842,1.764 1.603,3.529 2.508,5.226 2.996,5.616 7.663,9.615 13.735,12.108 6.123,2.513 11.992,1.892 17.446,-1.747 5.137,-3.426 9.319,-7.693 12.098,-13.037 0.785,-1.508 1.204,-3.271 1.371,-4.954 0.171,-1.726 -0.588,-2.122 -2.28,-2.596 -0.81,-0.227 -1.756,-1.016 -2.037,-1.755 -1.158,-3.036 -2.724,-5.762 -5.362,-7.893 -0.359,-0.289 -0.547,-0.837 -0.672,-1.299 -0.324,-1.196 -0.585,-2.407 -0.843,-3.618 -0.712,-3.328 -1.331,-4.219 -4.946,-2.943 -0.654,-1.108 -1.406,-2.152 -2.937,-1.534 -1.93,-1.577 -3.776,-3.084 -5.288,-4.319 0.378,-2.338 0.693,-4.412 1.063,-6.478 0.081,-0.454 0.234,-1.007 0.567,-1.296 4.282,-3.711 6.519,-8.525 8.351,-13.567 0.13,-0.359 0.296,-0.706 0.493,-1.173 4.09,4.141 7.684,8.474 10.284,13.492 0.667,1.288 1.369,2.561 2.097,3.819 1.509,2.608 2.924,5.183 2.524,8.362 -0.151,1.209 0.241,2.596 0.773,3.742 1.529,3.3 3.165,6.562 4.935,9.752 1.125,2.026 2.516,2.416 4.669,1.728 0.243,0.959 0.389,1.95 0.754,2.863 0.345,0.861 0.802,1.741 1.444,2.413 0.348,0.364 1.341,0.584 1.761,0.372 C 5.42,13.053 5.736,12.196 5.67,11.67 5.461,10.007 5.044,8.369 4.722,6.718 4.638,6.288 4.606,5.849 4.755,5.355 c 0.651,1.273 1.257,2.568 1.971,3.809 0.42,0.731 0.927,1.454 1.555,2.024 0.339,0.307 1.193,0.535 1.495,0.346 0.412,-0.257 0.782,-0.986 0.704,-1.443 C 10.311,9.083 9.85,8.119 9.456,6.987 10.002,7.102 10.535,7.345 11.025,7.284 11.65,7.206 12.435,7.029 12.786,6.619 13.069,6.288 12.989,5.464 12.754,5.004 12.231,3.986 11.494,3.068 10.874,2.094 10.262,1.132 9.25,0.302 9.893,-1.062 10.036,-1.368 9.726,-1.919 9.52,-2.308 c -2.233,-4.212 -4.646,-8.3 -8.345,-11.59 -0.809,-0.72 -1.496,-1.674 -1.922,-2.644 -3.859,-8.799 -7.594,-17.647 -11.493,-26.431 -1.127,-2.537 -2.535,-4.987 -4.06,-7.337 -1.254,-1.932 -3.19,-3.217 -5.527,-3.967 -2.036,-0.654 -3.905,-0.433 -5.439,0.91 -1.723,1.509 -3.319,3.159 -4.856,4.841 -3.116,3.409 -6.316,6.767 -9.182,10.358 -3.33,4.172 -6.338,8.572 -9.581,13.004 -0.616,-0.47 -1.582,-1.184 -2.518,-1.93 -4.67,-3.717 -9.974,-6.27 -15.743,-8.179 -4.287,-1.418 -8.374,-3.375 -12.532,-5.13 -6.119,-2.582 -12.289,-5.069 -18.303,-7.853 -3.067,-1.42 -5.841,-3.399 -8.937,-5.239 3.083,-2.611 5.76,-4.956 8.524,-7.205 8.166,-6.646 14.893,-14.462 20.999,-22.787 2.802,-3.819 5.722,-7.569 8.358,-11.488 2.003,-2.98 2.805,-6.36 2.591,-9.925 -0.263,-4.376 -2.401,-7.688 -6.56,-9.594 -2.86,-1.309 -5.886,-2.343 -8.916,-3.274 -6.12,-1.88 -12.21,-3.952 -18.469,-5.297 -6.014,-1.292 -12.232,-1.731 -18.35,-2.608 -6.287,-0.901 -12.496,-2.089 -18.244,-4.826 -0.867,-0.412 -1.33,-0.91 -1.477,-1.869 -0.572,-3.759 -1.344,-7.494 -1.863,-11.259 -0.407,-2.949 0.7,-5.54 2.685,-7.818 0.666,-0.763 1.341,-1.529 1.911,-2.356 1.543,-2.24 1.282,-4.241 -0.733,-6.143 -2.091,-1.973 -5.133,-2.474 -7.841,-1.268 -2.872,1.278 -4.847,3.458 -6.384,5.97 -1.7,2.781 -3.325,5.614 -4.784,8.513 -2.735,5.436 -5.984,10.538 -10.242,15.049 -0.585,0.62 -1.062,1.347 -1.5,2.073 -0.948,1.573 -0.874,3.138 0.314,4.575 2.836,3.433 6.751,5.405 10.923,6.975 0.397,0.149 1.123,-0.128 1.525,-0.418 0.824,-0.596 1.52,-0.741 2.56,-0.35 8.273,3.117 16.635,6.028 24.842,9.286 3.646,1.447 7.167,3.315 10.442,5.412 3.919,2.51 8.044,4.415 12.608,5.529 0.247,0.06 0.487,0.144 1.266,0.377 -12.714,4.346 -23.281,11.301 -33.744,18.766 -5.01,-3.856 -9.957,-7.676 -14.919,-11.477 -5.457,-4.177 -10.896,-8.372 -16.404,-12.486 -2.858,-2.136 -6.101,-3.671 -9.592,-4.676 -2.364,-0.682 -4.285,-1.947 -6.198,-3.388 -2.647,-1.994 -5.39,-3.951 -8.351,-5.48 -3.172,-1.638 -5.822,-3.838 -8.644,-5.877 -9.488,-6.86 -18.99,-13.704 -28.575,-20.444 -7.676,-5.396 -14.15,-11.877 -20.087,-18.994 0.83,-0.595 1.604,-1.15 2.583,-1.851 -3.721,-2.524 -5.115,-6.299 -6.919,-9.84 -1.72,-3.377 -1.828,-6.738 -0.111,-10.14 0.268,-0.532 0.461,-1.103 0.633,-1.672 0.521,-1.706 0.299,-3.219 -1.363,-4.32 h -1.89 c -1.122,0.624 -2.347,1.124 -3.345,1.89 -6.635,5.095 -10.818,11.425 -11.182,19.722 -0.144,3.295 -0.603,6.577 -0.919,9.865 z"
               style="fill:#939598;fill-opacity:1;fill-rule:nonzero;stroke:none"
               id="path856" />
          </g>
        </g>
      </g>
    </g>
  </g>
</svg>
