<?xml version="1.0" encoding="UTF-8" standalone="no"?>
<svg
   xmlns:dc="http://purl.org/dc/elements/1.1/"
   xmlns:cc="http://creativecommons.org/ns#"
   xmlns:rdf="http://www.w3.org/1999/02/22-rdf-syntax-ns#"
   xmlns:svg="http://www.w3.org/2000/svg"
   xmlns="http://www.w3.org/2000/svg"
   xmlns:sodipodi="http://sodipodi.sourceforge.net/DTD/sodipodi-0.dtd"
   xmlns:inkscape="http://www.inkscape.org/namespaces/inkscape"
   version="1.1"
   id="Layer_1"
   x="0px"
   y="0px"
   viewBox="0 0 455.29599 449.875"
   xml:space="preserve"
   sodipodi:docname="shopping-cart.svg"
   width="455.29599"
   height="449.875"
   inkscape:version="1.0.1 (3bc2e813f5, 2020-09-07)"><metadata
   id="metadata49"><rdf:RDF><cc:Work
       rdf:about=""><dc:format>image/svg+xml</dc:format><dc:type
         rdf:resource="http://purl.org/dc/dcmitype/StillImage" /><dc:title></dc:title></cc:Work></rdf:RDF></metadata><defs
   id="defs47" /><sodipodi:namedview
   pagecolor="#000000"
   bordercolor="#666666"
   borderopacity="1"
   objecttolerance="10"
   gridtolerance="10"
   guidetolerance="10"
   inkscape:pageopacity="0"
   inkscape:pageshadow="2"
   inkscape:window-width="1920"
   inkscape:window-height="1001"
   id="namedview45"
   showgrid="false"
   fit-margin-top="0"
   fit-margin-left="0"
   fit-margin-right="0"
   fit-margin-bottom="0"
   inkscape:pagecheckerboard="true"
   inkscape:zoom="1.2450665"
   inkscape:cx="307.83581"
   inkscape:cy="273.37126"
   inkscape:window-x="-9"
   inkscape:window-y="-9"
   inkscape:window-maximized="1"
   inkscape:current-layer="g12" />
<g
   id="g12"
   transform="translate(0,-2.711)">
	<circle
   cx="65.992996"
   cy="417.586"
   r="35"
   id="circle2"
   style="fill:#ffffff" />
	<path
   d="m 30.993,322.586 v 30 h 182.879 c -5.914,-9.267 -10.676,-19.335 -14.094,-30 z"
   id="path4"
   style="fill:#ffffff" />
	
	<path
   d="m 393.673,2.711 -12.294,75 H 0 l 25.888,158.454 c 2.833,17.282 19.479,31.422 36.992,31.422 h 131.688 c 7.715,-64.052 62.392,-113.859 128.49,-113.859 26.887,0 51.884,8.244 72.6,22.333 L 419.154,32.712 h 36.142 v -30 h -61.623 z"
   id="path8"
   style="fill:#ffffff" />
	<path
   d="m 323.059,412.586 c -12.147,0 -23.907,-1.686 -35.062,-4.829 -0.912,3.118 -1.404,6.416 -1.404,9.829 0,19.33 15.67,35 35,35 19.33,0 35,-15.67 35,-35 0,-3.145 -0.421,-6.19 -1.2,-9.089 -10.339,2.669 -21.174,4.089 -32.334,4.089 z"
   id="path10"
   style="fill:#ffffff" />
<rect
   style="fill:#ed1c24;fill-opacity:1;stroke-width:0.237102"
   id="rect1614"
   width="29.999964"
   height="123.00001"
   x="308.05899"
   y="221.657" /><rect
   style="fill:#ed1c24;fill-opacity:1;stroke-width:0.237102"
   id="rect1614-7"
   width="123"
   height="30"
   x="261.55899"
   y="268.15701" /></g>
<g
   id="g14"
   transform="translate(0,-2.711)">
</g>
<g
   id="g16"
   transform="translate(0,-2.711)">
</g>
<g
   id="g18"
   transform="translate(0,-2.711)">
</g>
<g
   id="g20"
   transform="translate(0,-2.711)">
</g>
<g
   id="g22"
   transform="translate(0,-2.711)">
</g>
<g
   id="g24"
   transform="translate(0,-2.711)">
</g>
<g
   id="g26"
   transform="translate(0,-2.711)">
</g>
<g
   id="g28"
   transform="translate(0,-2.711)">
</g>
<g
   id="g30"
   transform="translate(0,-2.711)">
</g>
<g
   id="g32"
   transform="translate(0,-2.711)">
</g>
<g
   id="g34"
   transform="translate(0,-2.711)">
</g>
<g
   id="g36"
   transform="translate(0,-2.711)">
</g>
<g
   id="g38"
   transform="translate(0,-2.711)">
</g>
<g
   id="g40"
   transform="translate(0,-2.711)">
</g>
<g
   id="g42"
   transform="translate(0,-2.711)">
</g>
</svg>
