<?xml version="1.0" encoding="UTF-8" standalone="no"?>
<svg
   xmlns:dc="http://purl.org/dc/elements/1.1/"
   xmlns:cc="http://creativecommons.org/ns#"
   xmlns:rdf="http://www.w3.org/1999/02/22-rdf-syntax-ns#"
   xmlns:svg="http://www.w3.org/2000/svg"
   xmlns="http://www.w3.org/2000/svg"
   xmlns:sodipodi="http://sodipodi.sourceforge.net/DTD/sodipodi-0.dtd"
   xmlns:inkscape="http://www.inkscape.org/namespaces/inkscape"
   sodipodi:docname="logo.svg"
   inkscape:version="1.0 (4035a4fb49, 2020-05-01)"
   id="svg8"
   version="1.1"
   viewBox="0 0 278.69449 57.648895"
   height="57.648895mm"
   width="278.69449mm">
  <defs
     id="defs2">
    <clipPath
       clipPathUnits="userSpaceOnUse"
       id="clipPath26">
      <path
         d="M 0,448 H 1000 V 0 H 0 Z"
         id="path24" />
    </clipPath>
  </defs>
  <sodipodi:namedview
     inkscape:window-maximized="0"
     inkscape:window-y="0"
     inkscape:window-x="130"
     inkscape:window-height="860"
     inkscape:window-width="1274"
     inkscape:pagecheckerboard="true"
     fit-margin-bottom="0"
     fit-margin-right="0"
     fit-margin-left="0"
     fit-margin-top="0"
     showgrid="false"
     inkscape:document-rotation="0"
     inkscape:current-layer="g22"
     inkscape:document-units="mm"
     inkscape:cy="304.17677"
     inkscape:cx="284.61687"
     inkscape:zoom="0.24748737"
     inkscape:pageshadow="2"
     inkscape:pageopacity="1"
     borderopacity="1.0"
     bordercolor="#666666"
     pagecolor="#ffffff"
     id="base" />
  <metadata
     id="metadata5">
    <rdf:RDF>
      <cc:Work
         rdf:about="">
        <dc:format>image/svg+xml</dc:format>
        <dc:type
           rdf:resource="http://purl.org/dc/dcmitype/StillImage" />
        <dc:title></dc:title>
      </cc:Work>
    </rdf:RDF>
  </metadata>
  <g
     transform="translate(73.957359,-50.172574)"
     id="layer1"
     inkscape:groupmode="layer"
     inkscape:label="Layer 1">
    <g
       id="g22"
       clip-path="url(#clipPath26)"
       transform="matrix(0.35277777,0,0,-0.35277777,-104.57343,175.02824)">
      <g
         id="g28"
         transform="translate(867.80911,322.10639)">
        <path
           d="M 0,0 C 0.118,0.896 0.221,1.685 0.324,2.474 0.244,2.499 0.165,2.525 0.085,2.55 -0.351,1.734 -0.785,0.918 -1.274,0 Z m -189.514,-106.314 c 0.562,2.818 2.721,4.022 5.378,4.731 1.5,0.4 3.014,0.763 4.49,1.232 3.791,1.205 6.597,3.584 8.959,6.572 3.623,4.584 7.446,9.029 11.029,13.638 2.989,3.845 6.826,6.639 11.371,8.54 6.347,2.655 11.355,6.618 14.843,12.323 2.768,4.529 6.515,8.297 10.837,11.555 4.285,3.233 7.017,7.4 8.619,12.309 0.595,1.824 1.338,3.621 2.19,5.352 1.871,3.803 5.313,5.842 9.453,6.796 3.693,0.852 7.147,2.021 10.012,4.467 2.127,1.815 4.299,3.583 6.452,5.37 4.986,4.139 9.943,8.311 14.984,12.389 1.224,0.991 2.786,1.602 4.098,2.509 1.302,0.901 2.592,1.86 3.689,2.968 1.056,1.068 1.837,2.374 2.778,3.547 0.606,0.755 0.57,1.44 -0.076,2.126 -0.435,0.46 -0.856,0.935 -1.327,1.36 -2.435,2.196 -4.358,4.677 -4.953,7.981 -2.725,-0.272 -5.352,-0.503 -7.971,-0.803 -4.572,-0.523 -9.203,-0.722 -13.643,-2.026 -2.286,-0.672 -4.568,-1.352 -6.511,-2.756 -2.418,-1.747 -3.493,-4.319 -4.735,-6.785 -0.498,-0.987 -0.879,-2.028 -1.393,-3.007 -0.213,-0.407 -0.574,-0.905 -0.979,-1.026 -0.663,-0.196 -1.589,-0.369 -2.077,-0.073 -0.374,0.227 -0.45,1.239 -0.296,1.817 0.297,1.119 0.862,2.174 1.29,3.265 0.185,0.469 0.304,0.962 0.452,1.444 -0.068,0.09 -0.137,0.179 -0.204,0.269 -0.706,-0.253 -1.494,-0.393 -2.102,-0.782 -1.74,-1.113 -3.397,-2.342 -5.105,-3.5 -0.822,-0.558 -1.661,-1.102 -2.54,-1.574 -0.607,-0.327 -1.412,-0.38 -1.712,0.284 -0.206,0.455 -0.14,1.304 0.192,1.64 1.376,1.4 2.9,2.673 4.37,3.992 -0.077,0.092 -0.152,0.184 -0.228,0.276 -1.248,-0.587 -2.492,-1.183 -3.746,-1.759 -0.683,-0.314 -1.358,-0.692 -2.085,-0.853 -0.454,-0.101 -1.242,-10e-4 -1.435,0.28 -0.249,0.36 -0.265,1.152 0.002,1.476 0.54,0.65 1.285,1.193 2.042,1.631 1.577,0.911 3.23,1.704 4.82,2.597 0.336,0.188 0.536,0.592 0.799,0.897 -0.369,0.166 -0.72,0.414 -1.109,0.486 -1.565,0.293 -3.142,0.53 -4.716,0.791 -0.393,0.065 -0.796,0.103 -1.174,0.218 -0.741,0.224 -1.675,0.317 -1.499,1.399 0.12,0.736 1.013,1.133 2.12,0.947 1.677,-0.283 3.346,-0.616 5.029,-0.877 0.707,-0.109 1.437,-0.087 2.157,-0.124 l 0.191,0.265 c -0.256,0.25 -0.464,0.604 -0.777,0.733 -1.327,0.549 -2.686,1.026 -4.03,1.537 -0.505,0.192 -1.065,0.327 -1.479,0.634 -0.354,0.263 -0.82,0.829 -0.722,1.091 0.141,0.378 0.734,0.825 1.157,0.847 0.847,0.042 1.805,0.004 2.549,-0.331 2.835,-1.278 5.71,-1.653 8.764,-0.861 0.574,0.15 1.243,0.104 1.844,0.013 2.233,-0.341 4.233,0.256 6.175,1.209 3.894,1.911 7.741,3.918 11.715,5.67 4.771,2.106 9.935,3.004 15.105,3.746 0.976,0.139 2.214,-0.029 3.039,-0.505 4.489,-2.581 8.935,-5.234 13.295,-8.004 2.678,-1.7 4.475,-4.177 5.811,-6.929 0.293,-0.603 0.646,-0.954 1.373,-1.123 2.135,-0.499 2.337,-0.671 4.853,-3.024 0.583,1.221 1.109,2.443 1.736,3.617 2.075,3.888 5.305,6.657 9.509,8.382 4.239,1.739 8.301,1.31 12.077,-1.209 3.556,-2.372 6.451,-5.326 8.375,-9.025 0.543,-1.044 0.834,-2.264 0.949,-3.43 C -7.048,9.324 -7.573,9.049 -8.745,8.721 -9.306,8.564 -9.96,8.018 -10.154,7.506 -10.957,5.404 -12.04,3.518 -13.866,2.042 c -0.249,-0.2 -0.379,-0.579 -0.466,-0.899 -0.225,-0.828 -0.404,-1.667 -0.584,-2.505 -0.492,-2.304 -0.921,-2.92 -3.424,-2.037 -0.452,-0.767 -0.973,-1.489 -2.033,-1.062 -1.336,-1.091 -2.613,-2.135 -3.66,-2.99 0.262,-1.618 0.479,-3.054 0.735,-4.484 0.057,-0.315 0.162,-0.697 0.393,-0.898 2.965,-2.568 4.512,-5.901 5.781,-9.392 0.09,-0.248 0.205,-0.488 0.342,-0.812 2.831,2.867 5.319,5.867 7.119,9.34 0.462,0.892 0.947,1.773 1.451,2.644 1.045,1.805 2.025,3.589 1.748,5.789 -0.105,0.837 0.167,1.797 0.534,2.591 1.059,2.284 2.192,4.542 3.417,6.75 0.779,1.402 1.742,1.673 3.233,1.197 0.168,0.663 0.268,1.35 0.521,1.982 0.239,0.596 0.555,1.205 1,1.67 C 2.482,9.178 3.17,9.33 3.46,9.184 3.752,9.037 3.972,8.443 3.926,8.079 3.78,6.928 3.491,5.793 3.269,4.65 3.21,4.353 3.189,4.049 3.292,3.708 c 0.45,0.88 0.87,1.777 1.364,2.636 0.29,0.506 0.642,1.007 1.077,1.401 0.235,0.213 0.826,0.371 1.035,0.24 0.285,-0.178 0.541,-0.683 0.488,-1 C 7.138,6.288 6.819,5.621 6.546,4.837 6.924,4.916 7.293,5.084 7.633,5.042 8.065,4.988 8.608,4.866 8.852,4.582 9.048,4.353 8.992,3.783 8.829,3.464 8.468,2.76 7.957,2.124 7.528,1.449 7.104,0.784 6.403,0.208 6.849,-0.735 6.948,-0.947 6.733,-1.328 6.591,-1.597 5.045,-4.513 3.374,-7.343 0.813,-9.622 c -0.559,-0.497 -1.036,-1.158 -1.33,-1.829 -2.671,-6.091 -5.257,-12.217 -7.957,-18.298 -0.779,-1.756 -1.755,-3.452 -2.809,-5.079 -0.868,-1.337 -2.209,-2.227 -3.826,-2.746 -1.411,-0.452 -2.704,-0.3 -3.766,0.63 -1.192,1.045 -2.298,2.187 -3.362,3.351 -2.157,2.36 -4.372,4.684 -6.356,7.171 -2.305,2.888 -4.387,5.934 -6.633,9.002 -0.426,-0.326 -1.094,-0.82 -1.743,-1.336 -3.233,-2.573 -6.905,-4.341 -10.898,-5.662 -2.968,-0.982 -5.797,-2.337 -8.675,-3.552 -4.236,-1.787 -8.508,-3.509 -12.672,-5.436 -2.123,-0.983 -4.043,-2.353 -6.186,-3.626 2.134,-1.808 3.988,-3.431 5.901,-4.989 5.653,-4.6 10.31,-10.011 14.537,-15.774 1.94,-2.644 3.961,-5.24 5.785,-7.954 1.387,-2.061 1.942,-4.402 1.794,-6.87 -0.181,-3.029 -1.662,-5.322 -4.541,-6.64 -1.98,-0.908 -4.075,-1.623 -6.173,-2.268 -4.236,-1.302 -8.452,-2.735 -12.785,-3.667 -4.163,-0.894 -8.468,-1.198 -12.703,-1.806 -4.353,-0.623 -8.65,-1.446 -12.63,-3.339 -0.598,-0.286 -0.921,-0.63 -1.021,-1.294 -0.397,-2.603 -0.931,-5.188 -1.291,-7.795 -0.282,-2.041 0.485,-3.835 1.859,-5.412 0.461,-0.529 0.929,-1.059 1.323,-1.631 1.069,-1.551 0.888,-2.936 -0.507,-4.252 -1.447,-1.367 -3.553,-1.714 -5.428,-0.879 -1.989,0.885 -3.357,2.394 -4.419,4.134 -1.177,1.925 -2.302,3.885 -3.312,5.892 -1.894,3.764 -4.143,7.296 -7.091,10.418 -0.405,0.43 -0.735,0.933 -1.038,1.436 -0.656,1.089 -0.605,2.172 0.217,3.167 1.963,2.376 4.674,3.741 7.563,4.828 0.273,0.103 0.777,-0.089 1.054,-0.289 0.571,-0.412 1.053,-0.514 1.773,-0.242 5.726,2.157 11.515,4.173 17.197,6.428 2.524,1.001 4.962,2.294 7.229,3.747 2.713,1.737 5.569,3.056 8.728,3.827 0.171,0.042 0.337,0.099 0.876,0.261 -8.802,3.008 -16.116,7.823 -23.359,12.992 -3.469,-2.67 -6.893,-5.315 -10.329,-7.946 -3.777,-2.891 -7.542,-5.796 -11.356,-8.644 -1.978,-1.478 -4.224,-2.541 -6.64,-3.237 -1.636,-0.471 -2.965,-1.347 -4.291,-2.345 -1.832,-1.38 -3.731,-2.736 -5.781,-3.794 -2.195,-1.134 -4.029,-2.656 -5.983,-4.069 -6.569,-4.748 -13.147,-9.487 -19.781,-14.152 -5.314,-3.735 -9.795,-8.222 -13.907,-13.148 0.576,-0.412 1.112,-0.796 1.789,-1.283 -2.576,-1.747 -3.542,-4.36 -4.79,-6.811 -1.19,-2.338 -1.265,-4.664 -0.077,-7.02 0.186,-0.368 0.32,-0.763 0.439,-1.157 0.36,-1.181 0.207,-2.227 -0.944,-2.99 h -1.309 c -0.776,0.432 -1.624,0.777 -2.315,1.307 -4.593,3.529 -7.489,7.911 -7.741,13.654 -0.1,2.281 -0.418,4.553 -0.636,6.829 z"
           style="fill:#939598;fill-opacity:1;fill-rule:nonzero;stroke:none"
           id="path30" />
      </g>
      <g
         id="g32"
         transform="translate(283.40531,259.69569)">
        <path
           d="m 0,0 c -4.835,0 -8.546,1.581 -11.03,4.702 -2.478,3.11 -3.189,7.122 -2.113,11.921 l 8.648,40.994 H 28.91 L 27.512,51.051 H 50.166 L 46.61,34.063 H 23.929 L 20.293,16.989 H 49.491 L 45.933,0 Z"
           style="fill:#939598;fill-opacity:1;fill-rule:nonzero;stroke:none"
           id="path34" />
      </g>
      <g
         id="g36"
         transform="translate(277.53911,310.81589)">
        <path
           d="m 0,0 3.992,18.92 c 1.016,4.525 3.219,8.184 6.556,10.921 3.368,2.757 7.332,4.153 11.785,4.153 h 47.46 L 66.239,17.006 H 37.014 L 33.392,0 Z"
           style="fill:#939598;fill-opacity:1;fill-rule:nonzero;stroke:none"
           id="path38" />
      </g>
      <g
         id="g40"
         transform="translate(161.51761,311.36319)">
        <path
           d="M 0,0 7.213,34.09 H 40.821 L 33.607,0 Z"
           style="fill:#939598;fill-opacity:1;fill-rule:nonzero;stroke:none"
           id="path42" />
      </g>
      <g
         id="g44"
         transform="translate(197.45421,311.36319)">
        <path
           d="M 0,0 7.213,34.09 H 39.456 L 44.641,0 Z"
           style="fill:#939598;fill-opacity:1;fill-rule:nonzero;stroke:none"
           id="path46" />
      </g>
      <g
         id="g48"
         transform="translate(241.56651,311.36319)">
        <path
           d="M 0,0 7.226,34.09 H 40.832 L 33.618,0 Z"
           style="fill:#939598;fill-opacity:1;fill-rule:nonzero;stroke:none"
           id="path50" />
      </g>
      <g
         id="g52"
         transform="translate(97.718814,311.36319)">
        <path
           d="M 0,0 7.214,34.09 H 40.822 L 33.597,0 Z"
           style="fill:#939598;fill-opacity:1;fill-rule:nonzero;stroke:none"
           id="path54" />
      </g>
      <g
         id="g56"
         transform="translate(150.58451,259.69569)">
        <path
           d="M 0,0 12.192,57.617 H 45.798 L 33.607,0 Z"
           style="fill:#939598;fill-opacity:1;fill-rule:nonzero;stroke:none"
           id="path58" />
      </g>
      <g
         id="g60"
         transform="translate(86.785714,259.69569)">
        <path
           d="M 0,0 12.192,57.617 H 45.791 L 37.198,17.069 H 66.641 L 63.069,0 Z"
           style="fill:#939598;fill-opacity:1;fill-rule:nonzero;stroke:none"
           id="path62" />
      </g>
      <g
         id="g64"
         transform="translate(232.01081,259.69569)">
        <path
           d="M 0,0 -4.965,32.574 -11.886,0 H -45.49 l 12.192,57.617 H 9.178 l 0.685,-4.499 0.953,4.499 H 44.433 L 32.242,0 Z"
           style="fill:#939598;fill-opacity:1;fill-rule:nonzero;stroke:none"
           id="path66" />
      </g>
      <g
         id="g68"
         transform="translate(574.38921,311.36319)">
        <path
           d="m 0,0 3.99,18.916 c 1.024,4.555 3.24,8.238 6.602,10.994 3.386,2.775 7.378,4.18 11.863,4.18 H 70.27 L 66.697,17.021 H 37.232 L 33.607,0 Z"
           style="fill:#939598;fill-opacity:1;fill-rule:nonzero;stroke:none"
           id="path70" />
      </g>
      <g
         id="g72"
         transform="translate(680.61971,311.36319)">
        <path
           d="M 0,0 3.614,17.021 H -5.311 L -8.926,0 h -33.613 l 7.214,34.09 h 59.361 c 4.86,0 8.593,-1.59 11.094,-4.727 2.495,-3.133 3.211,-7.169 2.128,-11.997 L 33.595,0 Z"
           style="fill:#939598;fill-opacity:1;fill-rule:nonzero;stroke:none"
           id="path74" />
      </g>
      <g
         id="g76"
         transform="translate(510.70461,311.36319)">
        <path
           d="m 0,0 3.989,18.916 c 1.024,4.555 3.24,8.238 6.6,10.993 3.388,2.776 7.379,4.181 11.864,4.181 H 70.268 L 66.695,17.021 H 37.231 L 33.606,0 Z"
           style="fill:#939598;fill-opacity:1;fill-rule:nonzero;stroke:none"
           id="path78" />
      </g>
      <g
         id="g80"
         transform="translate(474.78861,311.36319)">
        <path
           d="M 0,0 3.607,17.021 H -5.317 L -8.925,0 h -33.623 l 7.213,34.09 h 59.362 c 4.86,0 8.593,-1.59 11.094,-4.727 2.495,-3.133 3.211,-7.169 2.128,-11.997 L 33.562,0 Z"
           style="fill:#939598;fill-opacity:1;fill-rule:nonzero;stroke:none"
           id="path82" />
      </g>
      <g
         id="g84"
         transform="translate(516.55431,259.69569)">
        <path
           d="m 0,0 c -4.863,0 -8.597,1.59 -11.096,4.728 -2.495,3.134 -3.21,7.169 -2.126,11.995 l 8.627,40.894 h 33.617 l -1.32,-6.204 H 50.546 L 46.972,34.345 H 24.103 l -3.68,-17.276 h 29.44 L 46.289,0 Z"
           style="fill:#939598;fill-opacity:1;fill-rule:nonzero;stroke:none"
           id="path86" />
      </g>
      <g
         id="g88"
         transform="translate(580.24081,259.69569)">
        <path
           d="m 0,0 c -4.864,0 -8.597,1.59 -11.097,4.728 -2.495,3.134 -3.21,7.17 -2.125,11.996 l 8.626,40.893 H 29.023 L 27.701,51.413 H 50.544 L 46.972,34.345 H 24.103 L 20.423,17.069 H 49.861 L 46.29,0 Z"
           style="fill:#939598;fill-opacity:1;fill-rule:nonzero;stroke:none"
           id="path90" />
      </g>
      <g
         id="g92"
         transform="translate(627.14801,259.69569)">
        <path
           d="m 0,0 12.191,57.617 h 33.62 L 37.199,17.069 h 8.926 l 8.609,40.548 H 88.322 L 79.367,15.173 C 78.341,10.611 76.123,6.93 72.766,4.179 69.38,1.406 65.389,0 60.902,0 Z"
           style="fill:#939598;fill-opacity:1;fill-rule:nonzero;stroke:none"
           id="path94" />
      </g>
      <g
         id="g96"
         transform="translate(421.30771,259.69569)">
        <path
           d="M 0,0 12.191,57.617 H 45.817 L 42.43,41.634 h 8.924 l 3.387,15.983 H 88.307 L 84.483,39.619 C 83.461,35.066 81.244,31.383 77.883,28.63 74.5,25.857 70.508,24.45 66.02,24.45 L 38.832,24.553 33.603,0 Z"
           style="fill:#939598;fill-opacity:1;fill-rule:nonzero;stroke:none"
           id="path98" />
      </g>
      <g
         id="g100"
         transform="translate(358.47081,260.01509)">
        <path
           d="m 0,0 c -4.855,0 -8.557,1.593 -11,4.734 -2.403,3.092 -3.13,7.069 -2.16,11.82 l 2.743,13.411 H 22.982 L 20.27,16.99 h 8.811 l 3.638,17.073 H 7.216 c -4.837,0 -8.549,1.582 -11.031,4.704 -2.477,3.111 -3.188,7.121 -2.113,11.918 l 1.385,6.613 H 28.84 l -1.33,-6.244 h 25.504 c 4.831,0 8.54,-1.582 11.025,-4.704 2.477,-3.115 3.188,-7.124 2.112,-11.918 L 62.104,15.079 C 61.09,10.547 58.885,6.888 55.541,4.151 52.183,1.397 48.22,0 43.766,0 Z"
           style="fill:#939598;fill-opacity:1;fill-rule:nonzero;stroke:none"
           id="path102" />
      </g>
      <g
         id="g104"
         transform="translate(352.57091,310.81589)">
        <path
           d="m 0,0 1.742,8.351 2.283,10.888 c 1.016,4.527 3.216,8.185 6.553,10.922 3.373,2.758 7.337,4.155 11.787,4.155 H 66.13 c 4.809,0 8.514,-1.56 11.01,-4.635 2.499,-3.108 3.213,-7.1 2.134,-11.879 L 76.548,4.473 H 43.142 l 2.704,12.852 H 37.049 L 33.876,2.438 32.667,0.002 30.407,0 Z"
           style="fill:#939598;fill-opacity:1;fill-rule:nonzero;stroke:none"
           id="path106" />
      </g>
      <g
         id="g108"
         transform="translate(327.05521,297.40279)">
        <path
           d="m 0,0 2.03,9.7 h -22.671 l 1.398,6.566 h -25.946 l -8.048,-38.148 c -0.827,-3.685 -0.356,-6.637 1.409,-8.854 1.766,-2.219 4.493,-3.327 8.178,-3.327 h 42.973 l 2.031,9.7 H -27.859 L -22.671,0 Z"
           style="fill:#000000;fill-opacity:1;fill-rule:nonzero;stroke:none"
           id="path110" />
      </g>
      <g
         id="g112"
         transform="translate(299.87211,341.16549)">
        <path
           d="m 0,0 c -3.608,0 -6.767,-1.11 -9.474,-3.326 -2.707,-2.22 -4.474,-5.172 -5.301,-8.855 l -3.064,-14.524 H 8.109 l 3.622,17.006 H 40.944 L 42.974,0 Z"
           style="fill:#000000;fill-opacity:1;fill-rule:nonzero;stroke:none"
           id="path114" />
      </g>
      <g
         id="g116"
         transform="translate(192.17051,315.00779)">
        <path
           d="M 0,0 5.671,26.802 H -20.485 L -26.156,0 Z"
           style="fill:#000000;fill-opacity:1;fill-rule:nonzero;stroke:none"
           id="path118" />
      </g>
      <g
         id="g120"
         transform="translate(237.85361,315.00779)">
        <path
           d="M 0,0 -4.076,26.802 H -30.232 L -35.904,0 Z"
           style="fill:#000000;fill-opacity:1;fill-rule:nonzero;stroke:none"
           id="path122" />
      </g>
      <g
         id="g124"
         transform="translate(272.23101,315.00779)">
        <path
           d="M 0,0 5.671,26.802 H -20.485 L -26.167,0 Z"
           style="fill:#000000;fill-opacity:1;fill-rule:nonzero;stroke:none"
           id="path126" />
      </g>
      <g
         id="g128"
         transform="translate(128.36281,315.00779)">
        <path
           d="M 0,0 5.68,26.802 H -20.477 L -26.147,0 Z"
           style="fill:#000000;fill-opacity:1;fill-rule:nonzero;stroke:none"
           id="path130" />
      </g>
      <g
         id="g132"
         transform="translate(165.73051,313.66889)">
        <path
           d="M 0,0 -10.65,-50.33 H 15.507 L 26.157,0 Z"
           style="fill:#000000;fill-opacity:1;fill-rule:nonzero;stroke:none"
           id="path134" />
      </g>
      <g
         id="g136"
         transform="translate(128.07921,313.66889)">
        <path
           d="m 0,0 h -26.147 l -10.65,-50.33 h 55.611 l 2.048,9.782 H -8.594 Z"
           style="fill:#000000;fill-opacity:1;fill-rule:nonzero;stroke:none"
           id="path138" />
      </g>
      <g
         id="g140"
         transform="translate(245.78081,313.66889)">
        <path
           d="M 0,0 -4.497,-21.216 -7.723,0 h -36.391 l -10.65,-50.33 h 26.156 l 10.463,49.244 7.507,-49.244 H 15.518 L 26.167,0 Z"
           style="fill:#000000;fill-opacity:1;fill-rule:nonzero;stroke:none"
           id="path142" />
      </g>
      <g
         id="g144"
         transform="translate(99.310114,248.99649)">
        <path
           d="m 0,0 -2.514,-7.662 h 2.12 z m -3.5,-10.517 -1.545,-4.467 h -2.983 l 6.92,19.436 H 2.831 L 2.322,-14.984 h -3.011 l 0.178,4.467 z"
           style="fill:#939598;fill-opacity:1;fill-rule:nonzero;stroke:none"
           id="path146" />
      </g>
      <g
         id="g148"
         transform="translate(118.63241,250.50039)">
        <path
           d="m 0,0 h -3.047 l 0.56,2.948 H 6.454 L 5.894,0 h -3.03 l -3.132,-16.488 h -2.864 z"
           style="fill:#939598;fill-opacity:1;fill-rule:nonzero;stroke:none"
           id="path150" />
      </g>
      <g
         id="g152"
         transform="translate(139.21981,242.24849)">
        <path
           d="M 0,0 -1.564,-8.236 H -4.428 L -0.736,11.2 H 2.127 L 0.56,2.948 H 4.015 L 5.582,11.2 H 8.446 L 4.754,-8.236 H 1.891 L 3.455,0 Z"
           style="fill:#939598;fill-opacity:1;fill-rule:nonzero;stroke:none"
           id="path154" />
      </g>
      <g
         id="g156"
         transform="translate(165.43511,234.01219)">
        <path
           d="m 0,0 h -7.805 l 3.692,19.437 h 2.864 L -4.386,2.915 h 4.941 z"
           style="fill:#939598;fill-opacity:1;fill-rule:nonzero;stroke:none"
           id="path158" />
      </g>
      <g
         id="g160"
         transform="translate(178.49861,234.01219)">
        <path
           d="m 0,0 3.695,19.451 h 8.153 l -0.56,-2.946 H 5.999 L 4.992,11.198 H 8.856 L 8.296,8.252 H 4.432 L 3.424,2.946 H 8.712 L 8.153,0 Z"
           style="fill:#939598;fill-opacity:1;fill-rule:nonzero;stroke:none"
           id="path162" />
      </g>
      <g
         id="g164"
         transform="translate(205.89311,250.50039)">
        <path
           d="m 0,0 h -3.047 l 0.56,2.948 H 6.455 L 5.895,0 H 2.864 l -3.132,-16.488 h -2.863 z"
           style="fill:#939598;fill-opacity:1;fill-rule:nonzero;stroke:none"
           id="path166" />
      </g>
      <g
         id="g168"
         transform="translate(224.91801,234.01219)">
        <path
           d="M 0,0 H -2.864 L 0.828,19.437 H 3.691 Z"
           style="fill:#939598;fill-opacity:1;fill-rule:nonzero;stroke:none"
           id="path170" />
      </g>
      <g
         id="g172"
         transform="translate(243.04501,233.76509)">
        <path
           d="m 0,0 c -1.264,0 -2.251,0.451 -2.965,1.355 -0.71,0.905 -0.946,1.999 -0.702,3.283 l 2.015,10.61 c 0.244,1.29 0.898,2.39 1.959,3.296 1.06,0.904 2.217,1.357 3.471,1.357 1.262,0 2.247,-0.457 2.952,-1.366 0.707,-0.91 0.937,-2.006 0.694,-3.287 L 7.003,13.03 h -2.97 l 0.432,2.278 c 0.089,0.466 0.004,0.866 -0.257,1.195 -0.26,0.331 -0.618,0.496 -1.072,0.496 -0.455,0 -0.871,-0.165 -1.254,-0.496 -0.38,-0.329 -0.617,-0.729 -0.705,-1.195 l -2.02,-10.64 c -0.09,-0.465 -0.003,-0.861 0.254,-1.187 0.256,-0.326 0.61,-0.49 1.066,-0.49 0.454,0 0.873,0.164 1.258,0.49 0.386,0.326 0.621,0.722 0.711,1.187 l 0.509,2.683 h 2.97 L 5.409,4.638 C 5.164,3.344 4.511,2.247 3.452,1.347 2.392,0.449 1.243,0 0,0"
           style="fill:#939598;fill-opacity:1;fill-rule:nonzero;stroke:none"
           id="path174" />
      </g>
      <g
         id="g176"
         transform="translate(296.13241,234.01219)">
        <path
           d="m 0,0 3.695,19.451 h 8.152 l -0.56,-2.946 H 5.999 L 4.991,11.198 H 8.856 L 8.296,8.252 H 4.431 L 3.424,2.946 H 8.712 L 8.152,0 Z"
           style="fill:#939598;fill-opacity:1;fill-rule:nonzero;stroke:none"
           id="path178" />
      </g>
      <g
         id="g180"
         transform="translate(326.38091,248.76409)">
        <path
           d="m 0,0 c 0.214,1.126 -0.224,1.691 -1.316,1.691 h -1.727 l -1.183,-6.22 h 1.727 c 0.456,0 0.873,0.165 1.255,0.496 0.382,0.331 0.617,0.728 0.705,1.193 z M -0.823,4.685 C 0.772,4.685 1.859,4.233 2.436,3.334 2.944,2.549 3.063,1.452 2.797,0.047 L 2.259,-2.776 C 1.999,-4.152 1.269,-5.317 0.067,-6.267 l 0.509,-8.485 h -3.097 l -0.345,7.322 h -0.258 -1.652 l -1.391,-7.322 h -2.864 l 3.692,19.437 z"
           style="fill:#939598;fill-opacity:1;fill-rule:nonzero;stroke:none"
           id="path182" />
      </g>
      <g
         id="g184"
         transform="translate(343.36971,234.01219)">
        <path
           d="M 0,0 H -2.864 L 0.829,19.451 H 8.983 L 8.423,16.505 H 3.135 L 2.127,11.198 H 5.992 L 5.432,8.252 H 1.567 Z"
           style="fill:#939598;fill-opacity:1;fill-rule:nonzero;stroke:none"
           id="path186" />
      </g>
      <g
         id="g188"
         transform="translate(370.68221,249.10489)">
        <path
           d="M 0,0 C 0.088,0.466 0.005,0.86 -0.251,1.188 -0.509,1.513 -0.865,1.675 -1.319,1.675 -1.775,1.675 -2.194,1.513 -2.578,1.188 -2.963,0.86 -3.2,0.466 -3.288,0 L -5.31,-10.642 c -0.088,-0.464 -0.002,-0.859 0.26,-1.187 0.261,-0.324 0.619,-0.487 1.074,-0.487 0.454,0 0.872,0.163 1.253,0.487 0.38,0.328 0.614,0.723 0.702,1.187 z m -0.689,4.591 c 1.264,0 2.25,-0.454 2.96,-1.363 0.712,-0.912 0.946,-2.008 0.701,-3.29 l -2.015,-10.61 c -0.245,-1.292 -0.898,-2.391 -1.958,-3.298 -1.061,-0.904 -2.219,-1.357 -3.471,-1.357 -1.262,0 -2.247,0.455 -2.952,1.366 -0.707,0.91 -0.939,2.007 -0.694,3.289 l 2.013,10.61 c 0.247,1.291 0.9,2.392 1.961,3.297 1.06,0.904 2.212,1.356 3.455,1.356"
           style="fill:#939598;fill-opacity:1;fill-rule:nonzero;stroke:none"
           id="path190" />
      </g>
      <g
         id="g192"
         transform="translate(393.45611,248.76409)">
        <path
           d="m 0,0 c 0.214,1.126 -0.226,1.691 -1.316,1.691 h -1.727 l -1.183,-6.22 h 1.727 c 0.457,0 0.873,0.165 1.255,0.496 0.38,0.331 0.617,0.728 0.705,1.193 z M -0.823,4.685 C 0.772,4.685 1.858,4.233 2.436,3.334 2.942,2.549 3.063,1.452 2.795,0.047 L 2.26,-2.776 C 1.999,-4.152 1.269,-5.317 0.067,-6.267 l 0.509,-8.485 h -3.097 l -0.345,7.322 h -0.258 -1.652 l -1.391,-7.322 h -2.864 l 3.692,19.437 z"
           style="fill:#939598;fill-opacity:1;fill-rule:nonzero;stroke:none"
           id="path194" />
      </g>
      <g
         id="g196"
         transform="translate(410.44491,234.01219)">
        <path
           d="M 0,0 H -2.864 L 0.831,19.451 H 4.939 L 4.955,5.477 10.17,19.451 h 3.952 L 10.427,0 H 7.561 L 9.883,12.223 5.078,0 H 2.774 L 2.315,12.191 Z"
           style="fill:#939598;fill-opacity:1;fill-rule:nonzero;stroke:none"
           id="path198" />
      </g>
      <g
         id="g200"
         transform="translate(442.38821,248.99649)">
        <path
           d="m 0,0 -2.515,-7.662 h 2.121 z m -3.501,-10.517 -1.544,-4.467 h -2.983 l 6.919,19.436 h 3.94 L 2.322,-14.984 h -3.011 l 0.178,4.467 z"
           style="fill:#939598;fill-opacity:1;fill-rule:nonzero;stroke:none"
           id="path202" />
      </g>
      <g
         id="g204"
         transform="translate(465.12411,253.46329)">
        <path
           d="M 0,0 1.316,-13.073 3.798,0 H 6.662 L 2.968,-19.451 H -0.108 L -1.682,-6.996 -4.047,-19.451 H -6.912 L -3.216,0 Z"
           style="fill:#939598;fill-opacity:1;fill-rule:nonzero;stroke:none"
           id="path206" />
      </g>
      <g
         id="g208"
         transform="translate(486.20271,233.76509)">
        <path
           d="M 0,0 C -1.264,0 -2.251,0.451 -2.965,1.355 -3.677,2.26 -3.91,3.354 -3.667,4.638 l 2.015,10.61 c 0.245,1.29 0.898,2.39 1.96,3.296 1.059,0.904 2.216,1.357 3.47,1.357 1.263,0 2.247,-0.457 2.952,-1.366 0.706,-0.91 0.938,-2.006 0.695,-3.287 L 7.003,13.03 h -2.97 l 0.433,2.278 c 0.088,0.466 0.002,0.866 -0.258,1.195 -0.262,0.331 -0.617,0.496 -1.071,0.496 -0.455,0 -0.873,-0.165 -1.254,-0.496 C 1.502,16.174 1.266,15.774 1.178,15.308 l -2.02,-10.64 c -0.09,-0.465 -0.005,-0.861 0.251,-1.187 0.258,-0.326 0.611,-0.49 1.068,-0.49 0.454,0 0.874,0.164 1.257,0.49 0.385,0.326 0.622,0.722 0.712,1.187 l 0.51,2.683 H 5.924 L 5.409,4.638 C 5.163,3.344 4.512,2.247 3.452,1.347 2.393,0.449 1.241,0 0,0"
           style="fill:#939598;fill-opacity:1;fill-rule:nonzero;stroke:none"
           id="path210" />
      </g>
      <g
         id="g212"
         transform="translate(504.22221,234.01219)">
        <path
           d="m 0,0 3.693,19.451 h 8.154 l -0.56,-2.946 H 5.998 L 4.991,11.198 H 8.855 L 8.296,8.252 H 4.431 L 3.424,2.946 H 8.712 L 8.152,0 Z"
           style="fill:#939598;fill-opacity:1;fill-rule:nonzero;stroke:none"
           id="path214" />
      </g>
      <g
         id="g216"
         transform="translate(544.68221,250.50039)">
        <path
           d="m 0,0 h -3.047 l 0.56,2.948 H 6.454 L 5.894,0 H 2.863 l -3.132,-16.488 h -2.863 z"
           style="fill:#939598;fill-opacity:1;fill-rule:nonzero;stroke:none"
           id="path218" />
      </g>
      <g
         id="g220"
         transform="translate(569.87161,248.76409)">
        <path
           d="m 0,0 c 0.214,1.126 -0.226,1.691 -1.315,1.691 h -1.728 l -1.183,-6.22 h 1.728 c 0.456,0 0.872,0.165 1.254,0.496 0.381,0.331 0.617,0.728 0.706,1.193 z m -0.822,4.685 c 1.594,0 2.68,-0.452 3.259,-1.351 C 2.942,2.549 3.063,1.452 2.796,0.047 L 2.26,-2.776 C 1.999,-4.152 1.269,-5.317 0.067,-6.267 l 0.509,-8.485 h -3.097 l -0.344,7.322 h -0.258 -1.652 l -1.392,-7.322 H -9.03 l 3.691,19.437 z"
           style="fill:#939598;fill-opacity:1;fill-rule:nonzero;stroke:none"
           id="path222" />
      </g>
      <g
         id="g224"
         transform="translate(591.87461,248.99649)">
        <path
           d="m 0,0 -2.514,-7.662 h 2.12 z m -3.5,-10.517 -1.545,-4.467 h -2.983 l 6.92,19.436 H 2.831 L 2.322,-14.984 h -3.01 l 0.177,4.467 z"
           style="fill:#939598;fill-opacity:1;fill-rule:nonzero;stroke:none"
           id="path226" />
      </g>
      <g
         id="g228"
         transform="translate(610.56301,234.01219)">
        <path
           d="M 0,0 H -2.863 L 0.828,19.437 H 3.692 Z"
           style="fill:#939598;fill-opacity:1;fill-rule:nonzero;stroke:none"
           id="path230" />
      </g>
      <g
         id="g232"
         transform="translate(631.12941,253.46329)">
        <path
           d="M 0,0 1.317,-13.073 3.801,0 H 6.665 L 2.97,-19.451 H -0.106 L -1.68,-6.996 -4.046,-19.451 H -6.91 L -3.217,0 Z"
           style="fill:#939598;fill-opacity:1;fill-rule:nonzero;stroke:none"
           id="path234" />
      </g>
      <g
         id="g236"
         transform="translate(650.61771,234.01219)">
        <path
           d="M 0,0 H -2.863 L 0.828,19.437 H 3.692 Z"
           style="fill:#939598;fill-opacity:1;fill-rule:nonzero;stroke:none"
           id="path238" />
      </g>
      <g
         id="g240"
         transform="translate(671.18411,253.46329)">
        <path
           d="M 0,0 1.317,-13.073 3.801,0 H 6.665 L 2.97,-19.451 H -0.105 L -1.68,-6.996 -4.046,-19.451 H -6.909 L -3.217,0 Z"
           style="fill:#939598;fill-opacity:1;fill-rule:nonzero;stroke:none"
           id="path242" />
      </g>
      <g
         id="g244"
         transform="translate(692.26621,233.76509)">
        <path
           d="m 0,0 c -1.264,0 -2.251,0.454 -2.963,1.363 -0.711,0.909 -0.945,2.001 -0.704,3.275 l 2.015,10.61 c 0.245,1.29 0.898,2.39 1.96,3.296 1.059,0.904 2.216,1.357 3.47,1.357 1.263,0 2.247,-0.457 2.952,-1.366 0.706,-0.91 0.938,-2.006 0.695,-3.287 L 7.003,13.03 h -2.97 l 0.433,2.278 c 0.088,0.466 0.002,0.866 -0.258,1.195 -0.262,0.331 -0.617,0.496 -1.071,0.496 -0.455,0 -0.873,-0.165 -1.254,-0.496 C 1.502,16.174 1.266,15.774 1.178,15.308 l -2.02,-10.64 c -0.09,-0.465 -0.005,-0.861 0.251,-1.187 0.258,-0.326 0.611,-0.49 1.069,-0.49 0.453,0 0.871,0.162 1.256,0.488 0.385,0.325 0.622,0.721 0.71,1.184 L 3.17,8.483 H 1.579 L 2.14,11.432 H 6.699 L 5.409,4.638 C 5.163,3.344 4.512,2.247 3.452,1.347 2.393,0.449 1.241,0 0,0"
           style="fill:#939598;fill-opacity:1;fill-rule:nonzero;stroke:none"
           id="path246" />
      </g>
      <g
         id="g248"
         transform="translate(282.77981,248.76409)">
        <path
           d="m 0,0 -0.539,-2.84 c -0.088,-0.465 -0.323,-0.862 -0.706,-1.193 -0.381,-0.331 -0.798,-0.496 -1.253,-0.496 h -1.728 l 1.183,6.22 h 1.727 c 0.495,0 0.862,-0.157 1.102,-0.466 C 0.022,0.914 0.096,0.506 0,0 M 2.298,1.73 C 1.117,2.638 0.141,3.622 -0.654,4.67 -0.713,4.672 -0.763,4.685 -0.823,4.685 h -4.516 l -3.692,-19.437 h 2.864 l 1.391,7.322 h 1.652 c 1.243,0 2.388,0.455 3.434,1.366 1.045,0.908 1.691,2.003 1.935,3.288 L 2.782,0.047 C 2.871,0.516 2.887,0.944 2.871,1.355 2.679,1.466 2.485,1.587 2.298,1.73"
           style="fill:#939598;fill-opacity:1;fill-rule:nonzero;stroke:none"
           id="path250" />
      </g>
      <g
         id="g252"
         transform="translate(308.89361,318.42179)">
        <path
           d="m 0,0 h -205.951 l -0.859,-3.961 H -0.844 Z"
           style="fill:#ed1c24;fill-opacity:1;fill-rule:nonzero;stroke:none"
           id="path254" />
      </g>
      <g
         id="g256"
         transform="translate(605.04641,315.00779)">
        <path
           d="m 0,0 3.625,17.021 h 29.454 l 2.047,9.781 H -8.203 c -3.639,0 -6.823,-1.119 -9.553,-3.356 -2.728,-2.236 -4.511,-5.213 -5.345,-8.927 L -26.163,0 Z"
           style="fill:#000000;fill-opacity:1;fill-rule:nonzero;stroke:none"
           id="path258" />
      </g>
      <g
         id="g260"
         transform="translate(668.74271,315.00779)">
        <path
           d="M 0,0 3.615,17.021 H 19.99 L 16.376,0 h 26.141 l 3.062,14.519 c 0.833,3.714 0.359,6.691 -1.422,8.927 -1.782,2.237 -4.531,3.356 -8.244,3.356 H -20.494 L -26.166,0 Z"
           style="fill:#000000;fill-opacity:1;fill-rule:nonzero;stroke:none"
           id="path262" />
      </g>
      <g
         id="g264"
         transform="translate(541.36091,315.00779)">
        <path
           d="m 0,0 3.625,17.021 h 29.454 l 2.047,9.781 H -8.203 c -3.64,0 -6.824,-1.119 -9.554,-3.356 -2.727,-2.236 -4.51,-5.213 -5.344,-8.927 L -26.164,0 Z"
           style="fill:#000000;fill-opacity:1;fill-rule:nonzero;stroke:none"
           id="path266" />
      </g>
      <g
         id="g268"
         transform="translate(462.91071,315.00779)">
        <path
           d="M 0,0 3.607,17.021 H 19.982 L 16.375,0 h 26.113 l 3.083,14.519 c 0.833,3.714 0.36,6.691 -1.422,8.927 -1.782,2.237 -4.53,3.356 -8.244,3.356 H -20.503 L -26.174,0 Z"
           style="fill:#000000;fill-opacity:1;fill-rule:nonzero;stroke:none"
           id="path270" />
      </g>
      <g
         id="g272"
         transform="translate(560.56601,297.68449)">
        <path
           d="m 0,0 2.047,9.78 h -22.859 l 1.322,6.204 h -26.161 l -8.027,-38.047 c -0.834,-3.714 -0.358,-6.691 1.421,-8.928 1.781,-2.235 4.529,-3.354 8.246,-3.354 h 43.328 l 2.048,9.781 H -28.091 L -22.858,0 Z"
           style="fill:#000000;fill-opacity:1;fill-rule:nonzero;stroke:none"
           id="path274" />
      </g>
      <g
         id="g276"
         transform="translate(624.25251,297.68449)">
        <path
           d="m 0,0 2.047,9.78 h -22.859 l 1.321,6.204 h -26.161 l -8.026,-38.047 c -0.834,-3.714 -0.359,-6.691 1.42,-8.928 1.781,-2.235 4.529,-3.354 8.246,-3.354 h 43.329 l 2.047,9.781 H -28.091 L -22.859,0 Z"
           style="fill:#000000;fill-opacity:1;fill-rule:nonzero;stroke:none"
           id="path278" />
      </g>
      <g
         id="g280"
         transform="translate(684.83451,313.66889)">
        <path
           d="M 0,0 -8.61,-40.548 H -24.987 L -16.376,0 H -42.541 L -53.19,-50.33 H 3.217 c 3.638,0 6.823,1.12 9.553,3.355 2.729,2.236 4.508,5.213 5.344,8.927 L 26.142,0 Z"
           style="fill:#000000;fill-opacity:1;fill-rule:nonzero;stroke:none"
           id="path282" />
      </g>
      <g
         id="g284"
         transform="translate(479.00251,313.66889)">
        <path
           d="M 0,0 -3.388,-15.984 H -19.763 L -16.375,0 H -42.55 l -10.648,-50.33 h 26.156 l 5.231,24.565 30.137,-0.114 c 3.639,0 6.823,1.118 9.553,3.356 2.729,2.235 4.511,5.211 5.345,8.926 L 26.111,0 Z"
           style="fill:#000000;fill-opacity:1;fill-rule:nonzero;stroke:none"
           id="path286" />
      </g>
      <g
         id="g288"
         transform="translate(411.48541,307.42429)">
        <path
           d="m 0,0 h -30.006 l 1.329,6.245 h -25.921 l -0.789,-3.766 c -0.826,-3.686 -0.357,-6.633 1.409,-8.853 1.766,-2.219 4.495,-3.328 8.18,-3.328 h 30.006 l -5.192,-24.361 H -37.23 l 2.713,12.974 h -25.94 l -2.146,-10.496 c -0.753,-3.685 -0.259,-6.633 1.466,-8.852 1.725,-2.218 4.438,-3.329 8.123,-3.329 h 43.765 c 3.604,0 6.763,1.111 9.467,3.329 2.714,2.219 4.479,5.167 5.305,8.852 l 4.058,19.405 c 0.826,3.684 0.356,6.633 -1.41,8.851 C 6.406,-1.109 3.677,0 0,0"
           style="fill:#000000;fill-opacity:1;fill-rule:nonzero;stroke:none"
           id="path290" />
      </g>
      <g
         id="g292"
         transform="translate(426.88091,338.19969)">
        <path
           d="m 0,0 c -1.773,2.187 -4.495,3.288 -8.18,3.288 h -43.765 c -3.612,0 -6.763,-1.11 -9.476,-3.329 -2.704,-2.219 -4.47,-5.167 -5.296,-8.852 l -2.284,-10.884 -0.826,-3.96 -0.001,-0.002 h 25.925 v 0.002 l 0.842,3.96 2.851,13.362 h 16.238 l -2.705,-12.852 h 25.94 L 1.409,-8.779 C 2.235,-5.119 1.765,-2.195 0,0"
           style="fill:#000000;fill-opacity:1;fill-rule:nonzero;stroke:none"
           id="path294" />
      </g>
      <g
         id="g296"
         transform="translate(711.97911,318.42229)">
        <path
           d="M 0,0 C -0.275,-1.304 -0.462,-2.616 -0.834,-3.96 H -354.925 L -354.099,0 Z"
           style="fill:#ed1c24;fill-opacity:1;fill-rule:nonzero;stroke:none"
           id="path298" />
      </g>
      <g
         id="g300"
         transform="translate(867.80911,322.10639)">
        <path
           d="M 0,0 C 0.118,0.896 0.221,1.685 0.324,2.474 0.244,2.499 0.165,2.525 0.085,2.55 -0.351,1.734 -0.785,0.918 -1.274,0 Z m -189.514,-106.314 c 0.562,2.818 2.721,4.022 5.378,4.731 1.5,0.4 3.014,0.763 4.49,1.232 3.791,1.205 6.597,3.584 8.959,6.572 3.623,4.584 7.446,9.029 11.029,13.638 2.989,3.845 6.826,6.639 11.371,8.54 6.347,2.655 11.355,6.618 14.843,12.323 2.768,4.529 6.515,8.297 10.837,11.555 4.285,3.233 7.017,7.4 8.619,12.309 0.595,1.824 1.338,3.621 2.19,5.352 1.871,3.803 5.313,5.842 9.453,6.796 3.693,0.852 7.147,2.021 10.012,4.467 2.127,1.815 4.299,3.583 6.452,5.37 4.986,4.139 9.943,8.311 14.984,12.389 1.224,0.991 2.786,1.602 4.098,2.509 1.302,0.901 2.592,1.86 3.689,2.968 1.056,1.068 1.837,2.374 2.778,3.547 0.606,0.755 0.57,1.44 -0.076,2.126 -0.435,0.46 -0.856,0.935 -1.327,1.36 -2.435,2.196 -4.358,4.677 -4.953,7.981 -2.725,-0.272 -5.352,-0.503 -7.971,-0.803 -4.572,-0.523 -9.203,-0.722 -13.643,-2.026 -2.286,-0.672 -4.568,-1.352 -6.511,-2.756 -2.418,-1.747 -3.493,-4.319 -4.735,-6.785 -0.498,-0.987 -0.879,-2.028 -1.393,-3.007 -0.213,-0.407 -0.574,-0.905 -0.979,-1.026 -0.663,-0.196 -1.589,-0.369 -2.077,-0.073 -0.374,0.227 -0.45,1.239 -0.296,1.817 0.297,1.119 0.862,2.174 1.29,3.265 0.185,0.469 0.304,0.962 0.452,1.444 -0.068,0.09 -0.137,0.179 -0.204,0.269 -0.706,-0.253 -1.494,-0.393 -2.102,-0.782 -1.74,-1.113 -3.397,-2.342 -5.105,-3.5 -0.822,-0.558 -1.661,-1.102 -2.54,-1.574 -0.607,-0.327 -1.412,-0.38 -1.712,0.284 -0.206,0.455 -0.14,1.304 0.192,1.64 1.376,1.4 2.9,2.673 4.37,3.992 -0.077,0.092 -0.152,0.184 -0.228,0.276 -1.248,-0.587 -2.492,-1.183 -3.746,-1.759 -0.683,-0.314 -1.358,-0.692 -2.085,-0.853 -0.454,-0.101 -1.242,-10e-4 -1.435,0.28 -0.249,0.36 -0.265,1.152 0.002,1.476 0.54,0.65 1.285,1.193 2.042,1.631 1.577,0.911 3.23,1.704 4.82,2.597 0.336,0.188 0.536,0.592 0.799,0.897 -0.369,0.166 -0.72,0.414 -1.109,0.486 -1.565,0.293 -3.142,0.53 -4.716,0.791 -0.393,0.065 -0.796,0.103 -1.174,0.218 -0.741,0.224 -1.675,0.317 -1.499,1.399 0.12,0.736 1.013,1.133 2.12,0.947 1.677,-0.283 3.346,-0.616 5.029,-0.877 0.707,-0.109 1.437,-0.087 2.157,-0.124 l 0.191,0.265 c -0.256,0.25 -0.464,0.604 -0.777,0.733 -1.327,0.549 -2.686,1.026 -4.03,1.537 -0.505,0.192 -1.065,0.327 -1.479,0.634 -0.354,0.263 -0.82,0.829 -0.722,1.091 0.141,0.378 0.734,0.825 1.157,0.847 0.847,0.042 1.805,0.004 2.549,-0.331 2.835,-1.278 5.71,-1.653 8.764,-0.861 0.574,0.15 1.243,0.104 1.844,0.013 2.233,-0.341 4.233,0.256 6.175,1.209 3.894,1.911 7.741,3.918 11.715,5.67 4.771,2.106 9.935,3.004 15.105,3.746 0.976,0.139 2.214,-0.029 3.039,-0.505 4.489,-2.581 8.935,-5.234 13.295,-8.004 2.678,-1.7 4.475,-4.177 5.811,-6.929 0.293,-0.603 0.646,-0.954 1.373,-1.123 2.135,-0.499 2.337,-0.671 4.853,-3.024 0.583,1.221 1.109,2.443 1.736,3.617 2.075,3.888 5.305,6.657 9.509,8.382 4.239,1.739 8.301,1.31 12.077,-1.209 3.556,-2.372 6.451,-5.326 8.375,-9.025 0.543,-1.044 0.834,-2.264 0.949,-3.43 C -7.048,9.324 -7.573,9.049 -8.745,8.721 -9.306,8.564 -9.96,8.018 -10.154,7.506 -10.957,5.404 -12.04,3.518 -13.866,2.042 c -0.249,-0.2 -0.379,-0.579 -0.466,-0.899 -0.225,-0.828 -0.404,-1.667 -0.584,-2.505 -0.492,-2.304 -0.921,-2.92 -3.424,-2.037 -0.452,-0.767 -0.973,-1.489 -2.033,-1.062 -1.336,-1.091 -2.613,-2.135 -3.66,-2.99 0.262,-1.618 0.479,-3.054 0.735,-4.484 0.057,-0.315 0.162,-0.697 0.393,-0.898 2.965,-2.568 4.512,-5.901 5.781,-9.392 0.09,-0.248 0.205,-0.488 0.342,-0.812 2.831,2.867 5.319,5.867 7.119,9.34 0.462,0.892 0.947,1.773 1.451,2.644 1.045,1.805 2.025,3.589 1.748,5.789 -0.105,0.837 0.167,1.797 0.534,2.591 1.059,2.284 2.192,4.542 3.417,6.75 0.779,1.402 1.742,1.673 3.233,1.197 0.168,0.663 0.268,1.35 0.521,1.982 0.239,0.596 0.555,1.205 1,1.67 C 2.482,9.178 3.17,9.33 3.46,9.184 3.752,9.037 3.972,8.443 3.926,8.079 3.78,6.928 3.491,5.793 3.269,4.65 3.21,4.353 3.189,4.049 3.292,3.708 c 0.45,0.88 0.87,1.777 1.364,2.636 0.29,0.506 0.642,1.007 1.077,1.401 0.235,0.213 0.826,0.371 1.035,0.24 0.285,-0.178 0.541,-0.683 0.488,-1 C 7.138,6.288 6.819,5.621 6.546,4.837 6.924,4.916 7.293,5.084 7.633,5.042 8.065,4.988 8.608,4.866 8.852,4.582 9.048,4.353 8.992,3.783 8.829,3.464 8.468,2.76 7.957,2.124 7.528,1.449 7.104,0.784 6.403,0.208 6.849,-0.735 6.948,-0.947 6.733,-1.328 6.591,-1.597 5.045,-4.513 3.374,-7.343 0.813,-9.622 c -0.559,-0.497 -1.036,-1.158 -1.33,-1.829 -2.671,-6.091 -5.257,-12.217 -7.957,-18.298 -0.779,-1.756 -1.755,-3.452 -2.809,-5.079 -0.868,-1.337 -2.209,-2.227 -3.826,-2.746 -1.411,-0.452 -2.704,-0.3 -3.766,0.63 -1.192,1.045 -2.298,2.187 -3.362,3.351 -2.157,2.36 -4.372,4.684 -6.356,7.171 -2.305,2.888 -4.387,5.934 -6.633,9.002 -0.426,-0.326 -1.094,-0.82 -1.743,-1.336 -3.233,-2.573 -6.905,-4.341 -10.898,-5.662 -2.968,-0.982 -5.797,-2.337 -8.675,-3.552 -4.236,-1.787 -8.508,-3.509 -12.672,-5.436 -2.123,-0.983 -4.043,-2.353 -6.186,-3.626 2.134,-1.808 3.988,-3.431 5.901,-4.989 5.653,-4.6 10.31,-10.011 14.537,-15.774 1.94,-2.644 3.961,-5.24 5.785,-7.954 1.387,-2.061 1.942,-4.402 1.794,-6.87 -0.181,-3.029 -1.662,-5.322 -4.541,-6.64 -1.98,-0.908 -4.075,-1.623 -6.173,-2.268 -4.236,-1.302 -8.452,-2.735 -12.785,-3.667 -4.163,-0.894 -8.468,-1.198 -12.703,-1.806 -4.353,-0.623 -8.65,-1.446 -12.63,-3.339 -0.598,-0.286 -0.921,-0.63 -1.021,-1.294 -0.397,-2.603 -0.931,-5.188 -1.291,-7.795 -0.282,-2.041 0.485,-3.835 1.859,-5.412 0.461,-0.529 0.929,-1.059 1.323,-1.631 1.069,-1.551 0.888,-2.936 -0.507,-4.252 -1.447,-1.367 -3.553,-1.714 -5.428,-0.879 -1.989,0.885 -3.357,2.394 -4.419,4.134 -1.177,1.925 -2.302,3.885 -3.312,5.892 -1.894,3.764 -4.143,7.296 -7.091,10.418 -0.405,0.43 -0.735,0.933 -1.038,1.436 -0.656,1.089 -0.605,2.172 0.217,3.167 1.963,2.376 4.674,3.741 7.563,4.828 0.273,0.103 0.777,-0.089 1.054,-0.289 0.571,-0.412 1.053,-0.514 1.773,-0.242 5.726,2.157 11.515,4.173 17.197,6.428 2.524,1.001 4.962,2.294 7.229,3.747 2.713,1.737 5.569,3.056 8.728,3.827 0.171,0.042 0.337,0.099 0.876,0.261 -8.802,3.008 -16.116,7.823 -23.359,12.992 -3.469,-2.67 -6.893,-5.315 -10.329,-7.946 -3.777,-2.891 -7.542,-5.796 -11.356,-8.644 -1.978,-1.478 -4.224,-2.541 -6.64,-3.237 -1.636,-0.471 -2.965,-1.347 -4.291,-2.345 -1.832,-1.38 -3.731,-2.736 -5.781,-3.794 -2.195,-1.134 -4.029,-2.656 -5.983,-4.069 -6.569,-4.748 -13.147,-9.487 -19.781,-14.152 -5.314,-3.735 -9.795,-8.222 -13.907,-13.148 0.576,-0.412 1.112,-0.796 1.789,-1.283 -2.576,-1.747 -3.542,-4.36 -4.79,-6.811 -1.19,-2.338 -1.265,-4.664 -0.077,-7.02 0.186,-0.368 0.32,-0.763 0.439,-1.157 0.36,-1.181 0.207,-2.227 -0.944,-2.99 h -1.309 c -0.776,0.432 -1.624,0.777 -2.315,1.307 -4.593,3.529 -7.489,7.911 -7.741,13.654 -0.1,2.281 -0.418,4.553 -0.636,6.829 z"
           style="fill:#939598;fill-opacity:1;fill-rule:nonzero;stroke:none"
           id="path302" />
      </g>
    </g>
  </g>
</svg>
